<svg width="639" height="149" viewBox="0 0 639 149" fill="none" xmlns="http://www.w3.org/2000/svg">
<path d="M70 146H5.66244e-07V117.2C5.66244e-07 112 0.266667 107.467 0.800001 103.6C1.33333 99.6 2.33333 96 3.8 92.8C5.4 89.6 6.86667 87 8.2 85C9.66667 82.8667 11.8667 80.6667 14.8 78.4C17.8667 76 20.4667 74.2 22.6 73C24.7333 71.6667 28 69.7333 32.4 67.2C37.4667 64.5333 40.7333 61.6667 42.2 58.6C43.8 55.4 44.6 50.0667 44.6 42.6V30.8C44.6 27.7333 43.6 25.4667 41.6 24C39.7333 22.5333 37.6 21.8 35.2 21.8C32.5333 21.8 30.2 22.5333 28.2 24C26.3333 25.4667 25.4 27.7333 25.4 30.8V46.2H0.800001V30.2C0.800001 20.0667 4.2 12.6 11 7.79999C17.9333 2.86666 26 0.399991 35.2 0.399991C44.2667 0.399991 52.2 2.86666 59 7.79999C65.8 12.6 69.2 20.0667 69.2 30.2V42.6C69.2 48.3333 68.7333 53.4667 67.8 58C66.8667 62.5333 65.8 66.1333 64.6 68.8C63.4 71.4667 61.4667 74.1333 58.8 76.8C56.1333 79.4667 53.9333 81.4667 52.2 82.8C50.4667 84 47.6667 85.8 43.8 88.2C34.8667 93.2667 29.4 97.2 27.4 100C25.5333 102.667 24.6 108.4 24.6 117.2V125H70V146ZM130.733 119.6V29.4C130.733 26.7333 129.799 24.8 127.933 23.6C126.066 22.4 123.866 21.8 121.333 21.8C114.799 21.8 111.533 24.3333 111.533 29.4V119.6C111.533 122.133 112.466 124.067 114.333 125.4C116.333 126.6 118.666 127.2 121.333 127.2C123.733 127.2 125.866 126.6 127.733 125.4C129.733 124.067 130.733 122.133 130.733 119.6ZM86.9328 120.2V28.6C86.9328 19 90.3328 11.9333 97.1328 7.4C104.066 2.73333 112.133 0.399991 121.333 0.399991C130.399 0.399991 138.333 2.66666 145.133 7.2C151.933 11.7333 155.333 18.8667 155.333 28.6V120.2C155.333 129.8 151.933 136.867 145.133 141.4C138.333 145.933 130.399 148.2 121.333 148.2C112.133 148.2 104.066 145.933 97.1328 141.4C90.3328 136.867 86.9328 129.8 86.9328 120.2ZM216.866 119.6V29.4C216.866 26.7333 215.932 24.8 214.066 23.6C212.199 22.4 209.999 21.8 207.466 21.8C200.932 21.8 197.666 24.3333 197.666 29.4V119.6C197.666 122.133 198.599 124.067 200.466 125.4C202.466 126.6 204.799 127.2 207.466 127.2C209.866 127.2 211.999 126.6 213.866 125.4C215.866 124.067 216.866 122.133 216.866 119.6ZM173.066 120.2V28.6C173.066 19 176.466 11.9333 183.266 7.4C190.199 2.73333 198.266 0.399991 207.466 0.399991C216.532 0.399991 224.466 2.66666 231.266 7.2C238.066 11.7333 241.466 18.8667 241.466 28.6V120.2C241.466 129.8 238.066 136.867 231.266 141.4C224.466 145.933 216.532 148.2 207.466 148.2C198.266 148.2 190.199 145.933 183.266 141.4C176.466 136.867 173.066 129.8 173.066 120.2ZM340.108 119.6V29.4C340.108 26.7333 339.174 24.8 337.308 23.6C335.441 22.4 333.241 21.8 330.708 21.8C324.174 21.8 320.908 24.3333 320.908 29.4V119.6C320.908 122.133 321.841 124.067 323.708 125.4C325.708 126.6 328.041 127.2 330.708 127.2C333.108 127.2 335.241 126.6 337.108 125.4C339.108 124.067 340.108 122.133 340.108 119.6ZM296.308 120.2V28.6C296.308 19 299.708 11.9333 306.508 7.4C313.441 2.73333 321.508 0.399991 330.708 0.399991C339.774 0.399991 347.708 2.66666 354.508 7.2C361.308 11.7333 364.708 18.8667 364.708 28.6V120.2C364.708 129.8 361.308 136.867 354.508 141.4C347.708 145.933 339.774 148.2 330.708 148.2C321.508 148.2 313.441 145.933 306.508 141.4C299.708 136.867 296.308 129.8 296.308 120.2ZM426.241 119.6V29.4C426.241 26.7333 425.307 24.8 423.441 23.6C421.574 22.4 419.374 21.8 416.841 21.8C410.307 21.8 407.041 24.3333 407.041 29.4V119.6C407.041 122.133 407.974 124.067 409.841 125.4C411.841 126.6 414.174 127.2 416.841 127.2C419.241 127.2 421.374 126.6 423.241 125.4C425.241 124.067 426.241 122.133 426.241 119.6ZM382.441 120.2V28.6C382.441 19 385.841 11.9333 392.641 7.4C399.574 2.73333 407.641 0.399991 416.841 0.399991C425.907 0.399991 433.841 2.66666 440.641 7.2C447.441 11.7333 450.841 18.8667 450.841 28.6V120.2C450.841 129.8 447.441 136.867 440.641 141.4C433.841 145.933 425.907 148.2 416.841 148.2C407.641 148.2 399.574 145.933 392.641 141.4C385.841 136.867 382.441 129.8 382.441 120.2ZM512.373 119.6V29.4C512.373 26.7333 511.44 24.8 509.573 23.6C507.707 22.4 505.507 21.8 502.973 21.8C496.44 21.8 493.173 24.3333 493.173 29.4V119.6C493.173 122.133 494.107 124.067 495.973 125.4C497.973 126.6 500.307 127.2 502.973 127.2C505.373 127.2 507.507 126.6 509.373 125.4C511.373 124.067 512.373 122.133 512.373 119.6ZM468.573 120.2V28.6C468.573 19 471.973 11.9333 478.773 7.4C485.707 2.73333 493.773 0.399991 502.973 0.399991C512.04 0.399991 519.973 2.66666 526.773 7.2C533.573 11.7333 536.973 18.8667 536.973 28.6V120.2C536.973 129.8 533.573 136.867 526.773 141.4C519.973 145.933 512.04 148.2 502.973 148.2C493.773 148.2 485.707 145.933 478.773 141.4C471.973 136.867 468.573 129.8 468.573 120.2ZM622.025 146H604.19V61.755H587.66V54.94H638.7V61.755H622.025V146ZM638.7 48.995H587.66V42.18H638.7V48.995Z" fill="url(#paint0_linear_2_27)"/>
<defs>
<linearGradient id="paint0_linear_2_27" x1="321.5" y1="-28" x2="321.5" y2="158" gradientUnits="userSpaceOnUse">
<stop stop-color="#FFF591"/>
<stop offset="1" stop-color="#FFE44F"/>
</linearGradient>
</defs>
</svg>
